<svg width="24" height="24" viewBox="0 0 24 24" fill="none" xmlns="http://www.w3.org/2000/svg">
<mask id="mask0_8565_777" style="mask-type:alpha" maskUnits="userSpaceOnUse" x="0" y="0" width="24" height="24">
<rect width="24" height="24" fill="#C4C4C4"/>
</mask>
<g mask="url(#mask0_8565_777)">
</g>
<g clip-path="url(#clip0_8565_777)">
<mask id="mask1_8565_777" style="mask-type:alpha" maskUnits="userSpaceOnUse" x="0" y="0" width="24" height="24">
<path d="M24 0H0V24H24V0Z" fill="#C4C4C4"/>
</mask>
<g mask="url(#mask1_8565_777)">
<path d="M14 3V7C14 7.3 14.1 7.5 14.3 7.7C14.5 7.9 14.7 8 15 8H19" stroke="#473DD5" stroke-width="2" stroke-linecap="round" stroke-linejoin="round"/>
<path d="M9 17H15" stroke="#F17268" stroke-width="2" stroke-linecap="round" stroke-linejoin="round"/>
<path d="M17 21H7C6.5 21 6 20.8 5.6 20.4C5.2 20 5 19.5 5 19V5C5 4.5 5.2 4 5.6 3.6C6 3.2 6.5 3 7 3H14L19 8V19C19 19.5 18.8 20 18.4 20.4C18 20.8 17.5 21 17 21Z" stroke="#473DD5" stroke-width="2" stroke-linecap="round" stroke-linejoin="round"/>
<path d="M9 9H10H9Z" stroke="#F17268" stroke-width="2" stroke-linecap="round" stroke-linejoin="round"/>
<path d="M9 13H15H9Z" stroke="#F17268" stroke-width="2" stroke-linecap="round" stroke-linejoin="round"/>
</g>
</g>
<defs>
<clipPath id="clip0_8565_777">
<rect width="24" height="24" fill="white"/>
</clipPath>
</defs>
</svg>
