<svg width="224" height="192" viewBox="0 0 224 192" fill="none" xmlns="http://www.w3.org/2000/svg">
<g clip-path="url(#clip0_100_4386)">
<path d="M0.5 190.056C0.5 190.336 0.725279 190.561 1.00581 190.561H222.994C223.275 190.561 223.5 190.336 223.5 190.056C223.5 189.775 223.275 189.55 222.994 189.55H1.00581C0.725276 189.55 0.5 189.775 0.5 190.056Z" fill="#3F3C57"/>
<path d="M72.9283 20.4048L75.3424 31.4102L70.2077 46.7287L61.935 30.2702L63.0828 20.722L72.9283 20.4048Z" fill="#FDB4B4"/>
<path d="M75.7909 30.8403H61.5071V48.0826H75.7909V30.8403Z" fill="#4684E7"/>
<path d="M69.9171 25.9483C75.3046 25.9483 79.672 21.585 79.672 16.2027C79.672 10.8203 75.3046 6.45703 69.9171 6.45703C64.5297 6.45703 60.1623 10.8203 60.1623 16.2027C60.1623 21.585 64.5297 25.9483 69.9171 25.9483Z" fill="#FDB4B4"/>
<path d="M61.426 23.4496C61.426 23.4496 54.1547 10.0334 60.7106 3.57724C67.2665 -2.87896 72.5293 1.37528 72.5293 1.37528L75.5345 1.25394C75.5345 1.25394 76.1613 3.61678 77.172 2.33767C78.1826 1.05857 80.0089 5.7169 80.0089 5.7169C83.3986 11.8158 71.6479 13.182 71.6479 13.182C71.6479 13.182 72.4964 15.8824 71.634 16.4479C70.7715 17.0135 68.4672 19.1409 68.4672 19.1409L66.4046 20.6971L65.1789 18.8314C65.1789 18.8314 63.8986 17.8217 63.2517 18.2458C62.6049 18.6699 63.4947 24.2506 63.4947 24.2506L61.426 23.4496Z" fill="#2E2E41"/>
<path d="M49.7237 122.15L45.9942 177.73L55.1626 178.04L67.2835 122.616L49.7237 122.15Z" fill="#2E2E41"/>
<path d="M71.9455 121.84L68.2159 177.419L77.3843 177.73L89.5053 122.306L71.9455 121.84Z" fill="#2E2E41"/>
<path d="M47.4779 134.849L52.3587 74.3145L44.8738 42.793C44.2285 38.1073 47.1837 33.6737 51.7446 32.4647L59.0686 30.5235L62.3103 27.2847L69.6838 43.5523L74.2888 27.2971L77.8803 29.9066L88.5321 34.6015L88.5272 34.7115L86.8186 72.7892L90.6325 134.31L90.4634 134.312L47.4779 134.849Z" fill="#E8E9EA"/>
<path d="M76.7957 177.098L79.4504 185.016C79.4504 185.016 89.8364 186.427 89.998 189.639C90.1596 192.851 75.8829 190.992 67.5231 191.411C59.1632 191.831 66.1221 182.787 66.1221 182.787L67.013 177.589L76.7957 177.098Z" fill="#2E2E41"/>
<path d="M55.1156 176.528L57.7703 184.446C57.7703 184.446 68.1563 185.857 68.3179 189.069C68.4795 192.281 54.2028 190.422 45.843 190.842C37.4832 191.261 44.4421 182.217 44.4421 182.217L45.3329 177.02L55.1156 176.528Z" fill="#2E2E41"/>
<path d="M42.1635 102.7C42.0509 101.139 42.3143 99.5732 42.9315 98.1346L40.9502 81.8966L48.7116 81.1807L49.8855 97.7293C50.6655 99.0861 51.1089 100.61 51.1787 102.173C51.4069 106.083 49.5738 109.369 47.0841 109.514C44.5943 109.659 42.3912 106.608 42.1635 102.7Z" fill="#FDB4B4"/>
<path d="M91.322 105.083C91.2265 103.521 91.5069 101.958 92.1398 100.527L90.3358 84.2681L98.1046 83.6367L99.0979 100.197C99.863 101.562 100.29 103.091 100.342 104.655C100.528 108.567 98.6591 111.833 96.168 111.951C93.6768 112.069 91.507 108.994 91.322 105.083Z" fill="#FDB4B4"/>
<path d="M40.9183 96.1874L40.892 96.0473L36.8471 74.3645L41.6266 39.0563C42.0531 35.904 44.8705 33.6332 48.0476 33.887C49.7068 34.0197 51.1955 34.8059 52.2397 36.1011C53.2838 37.3963 53.7356 39.017 53.5118 40.6649L49.9145 67.1456L52.1794 95.4692L40.9183 96.1874Z" fill="#E8E9EA"/>
<path d="M88.9249 95.6786L80.7924 41.4443C80.3697 39.854 80.6171 38.1898 81.4927 36.7755C82.3683 35.3613 83.7481 34.397 85.3783 34.0602C88.4969 33.4158 91.5763 35.3203 92.3903 38.3953L100.203 94.9975L88.9249 95.6786Z" fill="#E8E9EA"/>
<path d="M69.9224 48.5101C70.4738 48.5101 70.9208 48.0635 70.9208 47.5126C70.9208 46.9617 70.4738 46.5151 69.9224 46.5151C69.371 46.5151 68.924 46.9617 68.924 47.5126C68.924 48.0635 69.371 48.5101 69.9224 48.5101Z" fill="#D6D7D8"/>
<path d="M69.9224 56.0624C70.4738 56.0624 70.9208 55.6158 70.9208 55.0649C70.9208 54.514 70.4738 54.0674 69.9224 54.0674C69.371 54.0674 68.924 54.514 68.924 55.0649C68.924 55.6158 69.371 56.0624 69.9224 56.0624Z" fill="#D6D7D8"/>
<path d="M69.9224 63.6146C70.4738 63.6146 70.9208 63.168 70.9208 62.6171C70.9208 62.0662 70.4738 61.6196 69.9224 61.6196C69.371 61.6196 68.924 62.0662 68.924 62.6171C68.924 63.168 69.371 63.6146 69.9224 63.6146Z" fill="#D6D7D8"/>
<path d="M69.9224 71.1668C70.4738 71.1668 70.9208 70.7203 70.9208 70.1694C70.9208 69.6185 70.4738 69.1719 69.9224 69.1719C69.371 69.1719 68.924 69.6185 68.924 70.1694C68.924 70.7203 69.371 71.1668 69.9224 71.1668Z" fill="#D6D7D8"/>
<path d="M69.9224 78.7196C70.4738 78.7196 70.9208 78.273 70.9208 77.7221C70.9208 77.1712 70.4738 76.7246 69.9224 76.7246C69.371 76.7246 68.924 77.1712 68.924 77.7221C68.924 78.273 69.371 78.7196 69.9224 78.7196Z" fill="#D6D7D8"/>
<path d="M69.9224 86.2718C70.4738 86.2718 70.9208 85.8252 70.9208 85.2743C70.9208 84.7234 70.4738 84.2769 69.9224 84.2769C69.371 84.2769 68.924 84.7234 68.924 85.2743C68.924 85.8252 69.371 86.2718 69.9224 86.2718Z" fill="#D6D7D8"/>
<path d="M69.9224 93.8241C70.4738 93.8241 70.9208 93.3775 70.9208 92.8266C70.9208 92.2757 70.4738 91.8291 69.9224 91.8291C69.371 91.8291 68.924 92.2757 68.924 92.8266C68.924 93.3775 69.371 93.8241 69.9224 93.8241Z" fill="#D6D7D8"/>
<path d="M69.9224 101.376C70.4738 101.376 70.9208 100.93 70.9208 100.379C70.9208 99.8279 70.4738 99.3813 69.9224 99.3813C69.371 99.3813 68.924 99.8279 68.924 100.379C68.924 100.93 69.371 101.376 69.9224 101.376Z" fill="#D6D7D8"/>
<path d="M69.9236 107.219L51.0323 104.703L50.6685 104.655L41.0136 82.4141L35.2637 69.1724H50.2403L69.9236 107.219Z" fill="#4684E7"/>
<path d="M145.668 22.8245L157.678 16.251V35.0325H143.788L145.668 22.8245Z" fill="#2E2E41"/>
<path d="M160.253 27.0119L161.362 36.2325L153.373 52.1262L148.414 37.3334L150.746 26.7056L160.253 27.0119Z" fill="#FDB4B4"/>
<path d="M161.775 36.7832H147.981V53.4338H161.775V36.7832Z" fill="#4684E7"/>
<path d="M173.154 124.96L176.756 178.632L167.902 178.932L156.197 125.41L173.154 124.96Z" fill="#2E2E41"/>
<path d="M151.695 124.66L155.296 178.333L146.443 178.632L134.738 125.11L151.695 124.66Z" fill="#2E2E41"/>
<path d="M182.508 136.344L182.297 136.343L125.894 136.159L125.945 135.96L140.446 78.5602L136.813 49.5928C136.125 44.1038 139.066 38.9155 144.132 36.6828L145.961 35.8768L149.435 33.3526L153.88 49.0431L160.997 33.3403L164.133 36.4723L171.204 38.3467C175.611 39.5148 178.467 43.799 177.846 48.3119L177.838 48.3433L167.04 79.1268L182.508 136.344Z" fill="#E8E9EA"/>
<path d="M147.011 178.022L156.458 178.497L157.318 183.516C157.318 183.516 164.039 192.25 155.966 191.845C147.893 191.439 134.106 193.235 134.262 190.133C134.418 187.031 144.447 185.669 144.447 185.669L147.011 178.022Z" fill="#2E2E41"/>
<path d="M167.947 177.472L177.394 177.947L178.255 182.966C178.255 182.966 184.975 191.7 176.902 191.294C168.829 190.889 155.042 192.685 155.198 189.583C155.354 186.481 165.384 185.118 165.384 185.118L167.947 177.472Z" fill="#2E2E41"/>
<path d="M176.598 105.626C176.378 109.401 174.251 112.347 171.847 112.207C169.442 112.067 167.672 108.893 167.892 105.118C167.96 103.608 168.388 102.137 169.141 100.827L170.275 84.8457L177.77 85.537L175.857 101.218C176.453 102.607 176.707 104.119 176.598 105.626Z" fill="#FDB4B4"/>
<path d="M138.082 104.191C137.782 107.96 135.592 110.86 133.191 110.669C130.79 110.478 129.088 107.268 129.389 103.497C129.488 101.99 129.948 100.528 130.729 99.2338L132.203 83.2808L139.681 84.1313L137.434 99.7679C138.001 101.169 138.223 102.686 138.082 104.191Z" fill="#FDB4B4"/>
<path d="M177.805 99.3435L166.92 98.6494L166.933 98.4864L169.108 71.2925L165.634 45.7212C165.418 44.1284 165.854 42.5617 166.863 41.3098C167.873 40.0579 169.312 39.2979 170.916 39.1696C173.987 38.9277 176.71 41.1193 177.122 44.1662L181.738 78.2637L181.733 78.2892L177.805 99.3435Z" fill="#E8E9EA"/>
<path d="M139.894 98.3018L128.992 97.6433L129.016 97.4713L136.534 42.996C137.324 40.0041 140.302 38.1638 143.315 38.7863C144.891 39.1119 146.225 40.044 147.071 41.4111C147.918 42.7782 148.157 44.3867 147.745 45.9405L139.894 98.3018Z" fill="#E8E9EA"/>
<path d="M153.649 53.8464C154.181 53.8464 154.613 53.4152 154.613 52.8832C154.613 52.3512 154.181 51.9199 153.649 51.9199C153.116 51.9199 152.684 52.3512 152.684 52.8832C152.684 53.4152 153.116 53.8464 153.649 53.8464Z" fill="#D6D7D8"/>
<path d="M153.649 61.1399C154.181 61.1399 154.613 60.7086 154.613 60.1766C154.613 59.6446 154.181 59.2134 153.649 59.2134C153.116 59.2134 152.684 59.6446 152.684 60.1766C152.684 60.7086 153.116 61.1399 153.649 61.1399Z" fill="#D6D7D8"/>
<path d="M153.649 68.4329C154.181 68.4329 154.613 68.0016 154.613 67.4696C154.613 66.9376 154.181 66.5063 153.649 66.5063C153.116 66.5063 152.684 66.9376 152.684 67.4696C152.684 68.0016 153.116 68.4329 153.649 68.4329Z" fill="#D6D7D8"/>
<path d="M153.649 75.7263C154.181 75.7263 154.613 75.2951 154.613 74.7631C154.613 74.2311 154.181 73.7998 153.649 73.7998C153.116 73.7998 152.684 74.2311 152.684 74.7631C152.684 75.2951 153.116 75.7263 153.649 75.7263Z" fill="#D6D7D8"/>
<path d="M153.649 83.0193C154.181 83.0193 154.613 82.588 154.613 82.056C154.613 81.524 154.181 81.0928 153.649 81.0928C153.116 81.0928 152.684 81.524 152.684 82.056C152.684 82.588 153.116 83.0193 153.649 83.0193Z" fill="#D6D7D8"/>
<path d="M153.649 90.3127C154.181 90.3127 154.613 89.8815 154.613 89.3495C154.613 88.8175 154.181 88.3862 153.649 88.3862C153.116 88.3862 152.684 88.8175 152.684 89.3495C152.684 89.8815 153.116 90.3127 153.649 90.3127Z" fill="#D6D7D8"/>
<path d="M153.649 97.6057C154.181 97.6057 154.613 97.1744 154.613 96.6425C154.613 96.1105 154.181 95.6792 153.649 95.6792C153.116 95.6792 152.684 96.1105 152.684 96.6425C152.684 97.1744 153.116 97.6057 153.649 97.6057Z" fill="#D6D7D8"/>
<path d="M153.649 104.899C154.181 104.899 154.613 104.468 154.613 103.936C154.613 103.404 154.181 102.973 153.649 102.973C153.116 102.973 152.684 103.404 152.684 103.936C152.684 104.468 153.116 104.899 153.649 104.899Z" fill="#D6D7D8"/>
<path d="M155.112 31.7179C160.093 31.7179 164.131 27.6841 164.131 22.7081C164.131 17.7321 160.093 13.6982 155.112 13.6982C150.132 13.6982 146.094 17.7321 146.094 22.7081C146.094 27.6841 150.132 31.7179 155.112 31.7179Z" fill="#FDB4B4"/>
<path d="M159.838 12.1901C160.27 13.0682 159.585 14.165 158.678 14.5342C157.771 14.9034 156.747 14.7538 155.779 14.6001C154.812 14.4465 153.786 14.3007 152.882 14.6764C151.712 15.1626 151.052 16.382 150.484 17.5136C149.423 19.626 148.361 21.7385 147.3 23.851C146.782 24.8831 146.252 25.9617 146.242 27.1164C146.224 29.236 147.907 30.9299 148.812 32.8468C149.915 35.1807 149.824 38.041 148.575 40.3003C147.327 42.5597 144.952 44.1605 142.388 44.4719C141.713 44.5538 140.999 44.5449 140.393 44.2387C139.786 43.9325 139.323 43.2637 139.435 42.594C139.655 41.2842 141.658 40.9781 142.026 39.7019C142.218 39.0357 141.878 38.3242 141.42 37.8038C140.961 37.2835 140.381 36.8776 139.944 36.3393C138.935 35.0982 138.868 33.1822 139.787 31.8736C140.327 31.1046 141.163 30.5332 141.512 29.6608C141.81 28.9172 141.701 28.0814 141.589 27.2885C141.444 26.2697 141.299 25.2509 141.154 24.2321C140.985 23.0435 140.819 21.8122 141.153 20.6589C141.918 18.016 144.905 16.7748 146.657 14.6519C147.471 13.6654 148.018 12.479 148.853 11.5102C150.255 9.88457 152.461 8.98777 154.601 9.1742C156.74 9.36062 158.757 10.6255 159.856 12.469" fill="#2E2E41"/>
<path d="M158.415 12.3569C157.974 12.5144 157.811 13.0877 157.937 13.5377C158.064 13.9876 158.396 14.3452 158.7 14.7006C162.138 18.7202 162.937 24.8004 160.655 29.5705C160.047 30.8393 159.239 32.0334 158.911 33.4011C158.673 34.3964 158.686 35.488 158.133 36.3496C157.57 37.2268 156.455 37.8145 156.345 38.8505C156.274 39.5153 156.68 40.161 157.224 40.5508C157.767 40.9406 158.432 41.1189 159.085 41.2643C160.782 41.6423 162.518 41.8486 164.257 41.8792C164.824 41.8891 165.409 41.8769 165.93 41.6512C166.45 41.4255 166.894 40.936 166.9 40.3695C166.904 39.9243 166.647 39.5136 166.614 39.0695C166.516 37.739 168.308 37.0311 168.657 35.7433C168.887 34.8967 168.435 34.0255 167.953 33.2922C167.471 32.559 166.921 31.789 166.933 30.9119C166.944 30.0723 167.472 29.3329 167.677 28.5185C167.96 27.3921 167.612 26.2139 167.267 25.1049C166.973 24.162 166.679 23.2192 166.386 22.2763C166.073 21.274 165.761 20.2717 165.449 19.2694C164.904 17.5196 164.332 15.7191 163.152 14.3157C161.972 12.9123 160.018 11.9924 158.276 12.5654" fill="#2E2E41"/>
<path d="M164.56 47.2699L163.942 47.09C165.23 42.6786 162.453 34.4465 162.425 34.3639L163.034 34.1562C163.152 34.5016 165.904 42.6654 164.56 47.2699Z" fill="#3F3C57"/>
<path d="M164.251 52.3368C165.736 52.3368 166.94 51.1338 166.94 49.6499C166.94 48.1659 165.736 46.9629 164.251 46.9629C162.765 46.9629 161.561 48.1659 161.561 49.6499C161.561 51.1338 162.765 52.3368 164.251 52.3368Z" fill="#3F3C57"/>
<path d="M146.579 59.1628H144.948C144.77 59.1628 144.626 59.0188 144.626 58.8411C144.626 58.6635 144.77 58.5195 144.948 58.5195H146.579C147.029 58.5195 147.451 58.3446 147.769 58.0267C148.086 57.709 148.26 57.2867 148.259 56.8378L148.239 46.8007C148.239 44.6203 146.464 42.8469 144.283 42.8469C142.101 42.8469 140.325 44.6203 140.325 46.8001L140.345 56.1949C140.347 57.1114 141.095 57.8627 142.012 57.8698L143.132 57.8783C143.309 57.8797 143.453 58.0246 143.451 58.2024C143.45 58.3791 143.306 58.5215 143.129 58.5215H143.127L142.007 58.5131C140.738 58.5033 139.704 57.4638 139.701 56.1961L139.681 46.8007C139.681 44.2657 141.745 42.2036 144.283 42.2036C146.819 42.2036 148.883 44.2657 148.883 46.8001L148.903 56.8366C148.904 57.4575 148.663 58.0416 148.224 58.481C147.785 58.9206 147.201 59.1628 146.579 59.1628Z" fill="#3F3C57"/>
<path d="M143.129 59.3395C143.76 59.3395 144.27 58.8291 144.27 58.1996C144.27 57.57 143.76 57.0596 143.129 57.0596C142.499 57.0596 141.988 57.57 141.988 58.1996C141.988 58.8291 142.499 59.3395 143.129 59.3395Z" fill="#3F3C57"/>
<path d="M144.948 59.9811C145.578 59.9811 146.089 59.4708 146.089 58.8412C146.089 58.2116 145.578 57.7012 144.948 57.7012C144.318 57.7012 143.807 58.2116 143.807 58.8412C143.807 59.4708 144.318 59.9811 144.948 59.9811Z" fill="#3F3C57"/>
<path d="M79.0758 42.4486L78.4577 42.2686C79.7455 37.8573 77 29.4976 76.972 29.415L77.7446 29.9969C77.8625 30.3423 80.4201 37.8441 79.0758 42.4486Z" fill="#3F3C57"/>
<path d="M57.3482 43.2322L57.9663 43.0523C56.6785 38.6409 59.4553 30.4088 59.4832 30.3262L58.822 30.7687C58.7042 31.114 56.0039 38.6277 57.3482 43.2322Z" fill="#3F3C57"/>
<path d="M78.7668 47.5155C80.2521 47.5155 81.4563 46.3125 81.4563 44.8286C81.4563 43.3446 80.2521 42.1416 78.7668 42.1416C77.2814 42.1416 76.0773 43.3446 76.0773 44.8286C76.0773 46.3125 77.2814 47.5155 78.7668 47.5155Z" fill="#3F3C57"/>
<path d="M60.2155 59.756H58.5844C58.4065 59.756 58.2625 59.612 58.2625 59.4344C58.2625 59.2568 58.4065 59.1128 58.5844 59.1128H60.2155C60.6651 59.1128 61.0873 58.9378 61.4048 58.6199C61.7221 58.3022 61.8965 57.8799 61.8956 57.4311L61.8758 47.394C61.8758 45.2135 60.1007 43.4401 57.9189 43.4401C55.737 43.4401 53.9616 45.2135 53.9616 47.3934L53.9814 56.7881C53.9833 57.7047 54.7312 58.456 55.6486 58.4631L56.7682 58.4715C56.9458 58.473 57.0889 58.6179 57.0876 58.7957C57.0863 58.9724 56.9423 59.1148 56.7657 59.1148H56.7631L55.6436 59.1063C54.3747 59.0966 53.34 58.0571 53.3375 56.7894L53.3177 47.394C53.3177 44.8589 55.3817 42.7969 57.9189 42.7969C60.4557 42.7969 62.5197 44.8589 62.5197 47.3934L62.5395 57.4298C62.5407 58.0508 62.2996 58.6349 61.8604 59.0743C61.4215 59.5139 60.837 59.756 60.2155 59.756Z" fill="#3F3C57"/>
<path d="M56.7658 59.9333C57.396 59.9333 57.9068 59.4229 57.9068 58.7933C57.9068 58.1637 57.396 57.6533 56.7658 57.6533C56.1356 57.6533 55.6247 58.1637 55.6247 58.7933C55.6247 59.4229 56.1356 59.9333 56.7658 59.9333Z" fill="#3F3C57"/>
<path d="M58.5843 60.5744C59.2145 60.5744 59.7254 60.064 59.7254 59.4344C59.7254 58.8048 59.2145 58.2944 58.5843 58.2944C57.9541 58.2944 57.4433 58.8048 57.4433 59.4344C57.4433 60.064 57.9541 60.5744 58.5843 60.5744Z" fill="#3F3C57"/>
</g>
<defs>
<clipPath id="clip0_100_4386">
<rect width="223" height="192" fill="white" transform="translate(0.5)"/>
</clipPath>
</defs>
</svg>
