<svg width="16" height="18" viewBox="0 0 16 18" fill="none" xmlns="http://www.w3.org/2000/svg">
<path fill-rule="evenodd" clip-rule="evenodd" d="M4.25 2.44389C3.38215 2.54679 2.74558 2.74548 2.21756 3.1291C1.86383 3.3861 1.55276 3.69717 1.29576 4.0509C0.5 5.14617 0.5 6.70856 0.5 9.83334C0.5 12.9581 0.5 14.5205 1.29576 15.6158C1.55276 15.9695 1.86383 16.2806 2.21756 16.5376C3.31283 17.3333 4.87522 17.3333 8 17.3333C8.69912 17.3333 9.32003 17.3333 9.875 17.3244L9.875 17.266C9.87494 16.556 9.87491 16.1235 9.93399 15.7504C10.2587 13.7001 11.8668 12.0921 13.9171 11.7673C14.2901 11.7082 14.7226 11.7083 15.4326 11.7083L15.4911 11.7083C15.5 11.1535 15.5 10.5327 15.5 9.83372C15.5 6.70895 15.5 5.14617 14.7042 4.0509C14.4472 3.69717 14.1362 3.3861 13.7824 3.1291C13.2544 2.74548 12.6178 2.54679 11.75 2.44389V3.16667C11.75 3.85703 11.1904 4.41667 10.5 4.41667C9.80964 4.41667 9.25 3.85703 9.25 3.16667V2.33568C8.86325 2.33334 8.44766 2.33334 8 2.33334C7.55234 2.33334 7.13675 2.33334 6.75 2.33568V3.16667C6.75 3.85703 6.19036 4.41667 5.5 4.41667C4.80964 4.41667 4.25 3.85703 4.25 3.16667V2.44389ZM3.83333 7.33334C4.29357 7.33334 4.66667 6.96024 4.66667 6.50001C4.66667 6.03977 4.29357 5.66667 3.83333 5.66667C3.3731 5.66667 3 6.03977 3 6.50001C3 6.96024 3.3731 7.33334 3.83333 7.33334ZM4.66667 9.83334C4.66667 10.2936 4.29357 10.6667 3.83333 10.6667C3.3731 10.6667 3 10.2936 3 9.83334C3 9.3731 3.3731 9.00001 3.83333 9.00001C4.29357 9.00001 4.66667 9.3731 4.66667 9.83334ZM8 7.33334C8.46024 7.33334 8.83333 6.96024 8.83333 6.50001C8.83333 6.03977 8.46024 5.66667 8 5.66667C7.53976 5.66667 7.16667 6.03977 7.16667 6.50001C7.16667 6.96024 7.53976 7.33334 8 7.33334ZM8.83333 9.83334C8.83333 10.2936 8.46024 10.6667 8 10.6667C7.53976 10.6667 7.16667 10.2936 7.16667 9.83334C7.16667 9.3731 7.53976 9.00001 8 9.00001C8.46024 9.00001 8.83333 9.3731 8.83333 9.83334ZM8 14C8.46024 14 8.83333 13.6269 8.83333 13.1667C8.83333 12.7064 8.46024 12.3333 8 12.3333C7.53976 12.3333 7.16667 12.7064 7.16667 13.1667C7.16667 13.6269 7.53976 14 8 14ZM13 6.50001C13 6.96024 12.6269 7.33334 12.1667 7.33334C11.7064 7.33334 11.3333 6.96024 11.3333 6.50001C11.3333 6.03977 11.7064 5.66667 12.1667 5.66667C12.6269 5.66667 13 6.03977 13 6.50001ZM12.1667 10.6667C12.6269 10.6667 13 10.2936 13 9.83334C13 9.3731 12.6269 9.00001 12.1667 9.00001C11.7064 9.00001 11.3333 9.3731 11.3333 9.83334C11.3333 10.2936 11.7064 10.6667 12.1667 10.6667ZM4.66667 13.1667C4.66667 13.6269 4.29357 14 3.83333 14C3.3731 14 3 13.6269 3 13.1667C3 12.7064 3.3731 12.3333 3.83333 12.3333C4.29357 12.3333 4.66667 12.7064 4.66667 13.1667Z" fill="#98A2B3"/>
<path d="M15.4456 12.9583C14.6869 12.9585 14.3696 12.9612 14.1126 13.0019C12.5972 13.242 11.4086 14.4305 11.1686 15.946C11.1279 16.203 11.1251 16.5203 11.125 17.2789C12.3247 17.2002 13.1351 17.0079 13.7824 16.5376C14.1362 16.2806 14.4472 15.9695 14.7042 15.6158C15.1745 14.9685 15.3669 14.158 15.4456 12.9583Z" fill="#98A2B3"/>
<path d="M6.125 0.666672C6.125 0.321494 5.84518 0.0416718 5.5 0.0416718C5.15482 0.0416718 4.875 0.321494 4.875 0.666672V3.16667C4.875 3.51185 5.15482 3.79167 5.5 3.79167C5.84518 3.79167 6.125 3.51185 6.125 3.16667V0.666672Z" fill="#98A2B3"/>
<path d="M11.125 0.666672C11.125 0.321494 10.8452 0.0416718 10.5 0.0416718C10.1548 0.0416718 9.875 0.321494 9.875 0.666672V3.16667C9.875 3.51185 10.1548 3.79167 10.5 3.79167C10.8452 3.79167 11.125 3.51185 11.125 3.16667V0.666672Z" fill="#98A2B3"/>
</svg>
