<svg width="16" height="18" viewBox="0 0 16 18" fill="none" xmlns="http://www.w3.org/2000/svg">
<path d="M6.95833 12C6.95833 11.4247 7.4247 10.9583 8 10.9583C8.5753 10.9583 9.04167 11.4247 9.04167 12C9.04167 12.5753 8.5753 13.0416 8 13.0416C7.4247 13.0416 6.95833 12.5753 6.95833 12Z" fill="#98A2B3"/>
<path fill-rule="evenodd" clip-rule="evenodd" d="M8 0.541626C5.35364 0.541626 3.20833 2.68693 3.20833 5.33329V6.26139C3.20833 6.31706 3.21561 6.37103 3.22927 6.4224C2.03252 6.86215 1.09972 7.82761 0.703931 9.04572C0.5 9.67336 0.5 10.4489 0.5 12C0.5 13.551 0.5 14.3266 0.703931 14.9542C1.11609 16.2227 2.1106 17.2172 3.3791 17.6294C4.00673 17.8333 4.78226 17.8333 6.33332 17.8333H9.66667C11.2177 17.8333 11.9933 17.8333 12.6209 17.6294C13.8894 17.2172 14.8839 16.2227 15.2961 14.9542C15.5 14.3266 15.5 13.551 15.5 12C15.5 10.4489 15.5 9.67336 15.2961 9.04572C14.9003 7.82761 13.9675 6.86215 12.7707 6.4224C12.7844 6.37103 12.7917 6.31706 12.7917 6.26139V5.33329C12.7917 2.68693 10.6464 0.541626 8 0.541626ZM9.66667 6.16663C10.4711 6.16663 11.0669 6.16663 11.5417 6.19507V5.33329C11.5417 3.37728 9.95601 1.79163 8 1.79163C6.04399 1.79163 4.45833 3.37728 4.45833 5.33329V6.19507C4.93311 6.16663 5.52893 6.16663 6.33333 6.16663H9.66667ZM5.70833 12C5.70833 10.7343 6.73435 9.70829 8 9.70829C9.26565 9.70829 10.2917 10.7343 10.2917 12C10.2917 13.2656 9.26565 14.2916 8 14.2916C6.73435 14.2916 5.70833 13.2656 5.70833 12Z" fill="#98A2B3"/>
</svg>
