<svg width="100" height="100" viewBox="0 0 100 100" fill="none" xmlns="http://www.w3.org/2000/svg">
<rect width="100" height="100" rx="20" fill="url(#paint0_linear_27_258)"/>
<mask id="mask0_27_258" style="mask-type:luminance" maskUnits="userSpaceOnUse" x="10" y="10" width="79" height="79">
<path d="M10 10H89V89H10V10Z" fill="white"/>
</mask>
<g mask="url(#mask0_27_258)">
<path d="M60.0945 89.1394H39.0427C36.0995 89.1394 33.7049 86.7449 33.7049 83.7994V79.8535C33.7049 77.1262 34.6942 74.4933 36.4907 72.445C39.4901 69.0229 47.2673 60.7915 54.6466 58.2733L55.7034 57.9113C64.5598 53.5426 71.368 46.0599 74.8778 36.8302L78.4865 26.1503C78.5382 25.9974 78.4797 25.8715 78.4415 25.813C78.4033 25.7546 78.3178 25.6534 78.1604 25.6377C75.9907 25.4016 73.8952 26.4718 72.8182 28.3605L68.6474 35.6386C66.1337 40.0387 62.181 43.5417 57.2143 45.7721C52.65 47.8227 49.3786 48.6411 47.1707 46.386C46.712 45.9205 46.4961 45.3225 46.5478 44.6569C46.6895 42.7997 49.0908 40.6458 51.0806 39.1663C55.1143 36.1625 55.3751 33.6892 55.3908 33.3902C55.2919 32.7156 54.7051 32.3537 54.1879 32.3537C53.9698 32.3537 53.7585 32.4144 53.5584 32.5335L41.761 39.6565C38.7729 41.2169 36.5132 43.8273 35.3957 47.002L34.0872 50.7231C32.8213 54.3161 31.0496 57.6999 28.8214 60.7803C26.7124 63.6942 23.3218 65.4345 19.7536 65.4345H15.34C12.3946 65.4345 10 63.0399 10 60.0945V39.0427C10 36.0995 12.3946 33.7049 15.34 33.7049H30.501C32.266 33.7049 33.7049 32.266 33.7049 30.501V15.34C33.7049 12.3946 36.0995 10 39.0427 10H60.0945C63.0399 10 65.4345 12.3946 65.4345 15.34V30.501C65.4345 31.8343 66.2416 32.99 67.4288 33.4666L70.9633 27.2992C72.463 24.6753 75.3769 23.1892 78.3875 23.5129C79.1475 23.5939 79.822 24.0098 80.238 24.6551C80.6562 25.3049 80.7551 26.0986 80.5123 26.8316L78.1874 33.7049H83.7994C86.7449 33.7049 89.1394 36.0995 89.1394 39.0427V60.0945C89.1394 63.0399 86.7449 65.4345 83.7994 65.4345H68.6384C66.8712 65.4345 65.4345 66.8734 65.4345 68.6384V83.7994C65.4345 86.7449 63.0399 89.1394 60.0945 89.1394ZM77.4657 35.8409L76.8878 37.552C73.1645 47.346 65.9583 55.2537 56.5847 59.8584L56.4588 59.9101L55.3369 60.2946C50.5545 61.9269 44.1106 66.9948 38.0961 73.8525C36.6414 75.5118 35.8409 77.6433 35.8409 79.8535V83.7994C35.8409 85.5667 37.2777 87.0034 39.0427 87.0034H60.0945C61.8617 87.0034 63.2985 85.5667 63.2985 83.7994V68.6384C63.2985 65.6953 65.6953 63.2985 68.6384 63.2985H83.7994C85.5667 63.2985 87.0034 61.8617 87.0034 60.0967V39.0449C87.0034 37.2777 85.5667 35.8409 83.7994 35.8409H77.4657ZM15.34 35.8409C13.5727 35.8409 12.136 37.2777 12.136 39.0427V60.0945C12.136 61.8617 13.5727 63.2985 15.34 63.2985H19.7536C22.6383 63.2985 25.3813 61.8887 27.0901 59.5279C29.1991 56.614 30.8742 53.4122 32.0726 50.0126L33.3789 46.2938C34.674 42.6154 37.2889 39.5935 40.7402 37.7791L52.4567 30.7056C52.985 30.3863 53.5831 30.2177 54.1879 30.2177C55.9035 30.2177 57.3379 31.506 57.5223 33.2125L57.5268 33.2733C57.547 33.642 57.5628 37.0011 52.3555 40.8796C49.3853 43.0898 48.5849 44.5468 48.6793 44.8728C49.6889 45.9048 51.3145 46.0802 56.3397 43.825C60.6049 41.9071 64.0472 38.9797 66.3473 35.326C64.5194 34.4649 63.2985 32.6167 63.2985 30.501V15.34C63.2985 13.5727 61.8617 12.136 60.0945 12.136H39.0427C37.2777 12.136 35.8409 13.5727 35.8409 15.34V30.501C35.8409 33.4441 33.4441 35.8409 30.501 35.8409H15.34Z" fill="white"/>
</g>
<defs>
<linearGradient id="paint0_linear_27_258" x1="50" y1="0" x2="50" y2="100" gradientUnits="userSpaceOnUse">
<stop stop-color="#6199F6"/>
<stop offset="1" stop-color="#473DD5"/>
</linearGradient>
</defs>
</svg>
