<svg width="67" height="75" viewBox="0 0 67 75" fill="none" xmlns="http://www.w3.org/2000/svg">
<mask id="mask0_84_871" style="mask-type:luminance" maskUnits="userSpaceOnUse" x="2" y="0" width="63" height="63">
<path d="M2.07874 0H64.3437V62.2649H2.07874V0Z" fill="white"/>
</mask>
<g mask="url(#mask0_84_871)">
<path d="M41.5614 62.3748H24.9691C22.6494 62.3748 20.7621 60.4875 20.7621 58.166V55.056C20.7621 52.9064 21.5418 50.8313 22.9578 49.2169C25.3218 46.5197 31.4515 40.032 37.2676 38.0472L38.1005 37.7619C45.0808 34.3187 50.4468 28.4211 53.213 21.1466L56.0573 12.7291C56.098 12.6086 56.0519 12.5093 56.0218 12.4633C55.9917 12.4172 55.9244 12.3374 55.8003 12.325C54.0902 12.139 52.4386 12.9825 51.5898 14.4711L48.3025 20.2074C46.3213 23.6754 43.2059 26.4364 39.2913 28.1943C35.6939 29.8105 33.1155 30.4555 31.3753 28.6781C31.0138 28.3113 30.8437 27.8399 30.8844 27.3153C30.9961 25.8516 32.8887 24.1539 34.457 22.9878C37.6362 20.6203 37.8417 18.671 37.8541 18.4353C37.7762 17.9036 37.3136 17.6183 36.906 17.6183C36.7342 17.6183 36.5676 17.6662 36.4099 17.7601L27.1116 23.3742C24.7564 24.604 22.9755 26.6614 22.0947 29.1636L21.0634 32.0965C20.0657 34.9283 18.6692 37.5954 16.9131 40.0231C15.2508 42.3198 12.5785 43.6914 9.76616 43.6914H6.2875C3.96603 43.6914 2.07874 41.8041 2.07874 39.4827V22.8904C2.07874 20.5707 3.96603 18.6834 6.2875 18.6834H18.2369C19.628 18.6834 20.7621 17.5492 20.7621 16.1581V4.20877C20.7621 1.8873 22.6494 0 24.9691 0H41.5614C43.8829 0 45.7701 1.8873 45.7701 4.20877V16.1581C45.7701 17.209 46.4063 18.1198 47.342 18.4955L50.1278 13.6346C51.3098 11.5666 53.6064 10.3952 55.9793 10.6504C56.5783 10.7142 57.1099 11.042 57.4377 11.5506C57.7673 12.0628 57.8453 12.6883 57.6539 13.266L55.8216 18.6834H60.2448C62.5662 18.6834 64.4535 20.5707 64.4535 22.8904V39.4827C64.4535 41.8041 62.5662 43.6914 60.2448 43.6914H48.2954C46.9025 43.6914 45.7701 44.8256 45.7701 46.2167V58.166C45.7701 60.4875 43.8829 62.3748 41.5614 62.3748ZM55.2527 20.3669L54.7973 21.7155C51.8627 29.4348 46.1831 35.6673 38.7951 39.2966L38.6959 39.3373L37.8116 39.6404C34.0423 40.9269 28.9634 44.9213 24.223 50.3262C23.0765 51.634 22.4456 53.314 22.4456 55.056V58.166C22.4456 59.5589 23.578 60.6913 24.9691 60.6913H41.5614C42.9543 60.6913 44.0866 59.5589 44.0866 58.166V46.2167C44.0866 43.897 45.9757 42.0079 48.2954 42.0079H60.2448C61.6376 42.0079 62.77 40.8755 62.77 39.4844V22.8921C62.77 21.4993 61.6376 20.3669 60.2448 20.3669H55.2527ZM6.2875 20.3669C4.89462 20.3669 3.76224 21.4993 3.76224 22.8904V39.4827C3.76224 40.8755 4.89462 42.0079 6.2875 42.0079H9.76616C12.0398 42.0079 14.2018 40.8968 15.5486 39.0361C17.2108 36.7394 18.531 34.2159 19.4756 31.5365L20.5052 28.6054C21.5259 25.7063 23.5869 23.3245 26.307 21.8944L35.5415 16.3194C35.958 16.0677 36.4293 15.9348 36.906 15.9348C38.2582 15.9348 39.3888 16.9502 39.5341 18.2953L39.5376 18.3431C39.5536 18.6338 39.566 21.2813 35.4618 24.3382C33.1208 26.0802 32.4899 27.2285 32.5644 27.4855C33.3601 28.2989 34.6413 28.4371 38.602 26.6596C41.9637 25.148 44.6768 22.8407 46.4896 19.9611C45.0489 19.2823 44.0866 17.8257 44.0866 16.1581V4.20877C44.0866 2.81589 42.9543 1.68351 41.5614 1.68351H24.9691C23.578 1.68351 22.4456 2.81589 22.4456 4.20877V16.1581C22.4456 18.4778 20.5565 20.3669 18.2369 20.3669H6.2875Z" fill="white"/>
</g>
<path d="M5.79126 73.6033H3.08347L2.67943 74.8367H0L2.97715 66.6992H5.91885L8.88891 74.8367H6.1953L5.79126 73.6033ZM5.17457 71.6894L4.43737 69.4211L3.70017 71.6894H5.17457Z" fill="white"/>
<path d="M17.281 66.6992L14.3606 72.3628V74.8367H11.8087V72.3628L8.88831 66.6992H11.8087L13.1059 69.5842L14.4102 66.6992H17.281Z" fill="white"/>
<path d="M21.8258 74.9147C21.0549 74.9147 20.3514 74.7357 19.7134 74.3759C19.0754 74.018 18.5668 73.5218 18.1894 72.8874C17.8155 72.2494 17.6294 71.5317 17.6294 70.7325C17.6294 69.935 17.8155 69.2191 18.1894 68.5847C18.5668 67.9467 19.0754 67.4505 19.7134 67.0961C20.3514 66.7381 21.0549 66.5574 21.8258 66.5574C22.5913 66.5574 23.2895 66.7381 23.9239 67.0961C24.5619 67.4505 25.0652 67.9467 25.4338 68.5847C25.8059 69.2191 25.9938 69.935 25.9938 70.7325C25.9938 71.5317 25.8059 72.2494 25.4338 72.8874C25.0652 73.5218 24.5584 74.018 23.9168 74.3759C23.2789 74.7357 22.5807 74.9147 21.8258 74.9147ZM21.8258 72.54C22.3308 72.54 22.7207 72.377 22.9953 72.0509C23.2736 71.7249 23.4136 71.2854 23.4136 70.7325C23.4136 70.176 23.2736 69.733 22.9953 69.4069C22.7207 69.0809 22.3308 68.9178 21.8258 68.9178C21.3101 68.9178 20.9131 69.0809 20.6349 69.4069C20.3602 69.733 20.2238 70.176 20.2238 70.7325C20.2238 71.2854 20.3602 71.7249 20.6349 72.0509C20.9131 72.377 21.3101 72.54 21.8258 72.54Z" fill="white"/>
<path d="M32.0544 74.9147C31.0797 74.9147 30.2769 74.6878 29.6443 74.2342C29.0152 73.777 28.6732 73.1071 28.6165 72.2281H31.3313C31.3685 72.696 31.5759 72.9299 31.9551 72.9299C32.0916 72.9299 32.2068 72.898 32.3024 72.8306C32.4017 72.7651 32.4513 72.6641 32.4513 72.5258C32.4513 72.3327 32.3468 72.1767 32.1394 72.058C31.9303 71.941 31.6078 71.8064 31.1683 71.654C30.6473 71.4697 30.2184 71.2907 29.8782 71.1152C29.538 70.9363 29.2438 70.6793 28.9992 70.3426C28.7529 70.0024 28.6342 69.57 28.6448 69.0454C28.6448 68.5173 28.7795 68.0654 29.0489 67.6915C29.3218 67.3194 29.6939 67.0376 30.1617 66.848C30.6331 66.6548 31.1648 66.5574 31.7566 66.5574C32.7526 66.5574 33.5447 66.7895 34.1313 67.252C34.7161 67.711 35.0262 68.3578 35.0599 69.1943H32.3095C32.2989 68.9639 32.2404 68.7973 32.1323 68.6981C32.0278 68.5988 31.9002 68.5492 31.7495 68.5492C31.6397 68.5492 31.5511 68.5882 31.4802 68.6626C31.4128 68.7335 31.3809 68.8328 31.3809 68.9604C31.3809 69.1447 31.482 69.2971 31.6858 69.414C31.8878 69.5327 32.2121 69.6763 32.6569 69.8464C33.1672 70.0413 33.589 70.2256 33.9257 70.3993C34.2606 70.5748 34.5495 70.8211 34.7905 71.1365C35.035 71.4484 35.1591 71.8436 35.1591 72.3203C35.1591 72.8165 35.035 73.263 34.7905 73.66C34.5495 74.0534 34.1951 74.36 33.7272 74.5815C33.2594 74.8048 32.7012 74.9147 32.0544 74.9147Z" fill="white"/>
<path d="M38.6101 68.7335V69.733H41.1406V71.654H38.6101V72.8023H41.488V74.8367H36.0582V66.6992H41.488V68.7335H38.6101Z" fill="white"/>
<path d="M49.9862 66.6992V74.8367H47.4273V71.6611H45.003V74.8367H42.4512V66.6992H45.003V69.6267H47.4273V66.6992H49.9862Z" fill="white"/>
<path d="M56.3496 73.6033H53.6418L53.2378 74.8367H50.5583L53.5355 66.6992H56.4772L59.4473 74.8367H56.7537L56.3496 73.6033ZM55.7329 71.6894L54.9957 69.4211L54.2585 71.6894H55.7329Z" fill="white"/>
<path d="M66.4145 66.6992V68.7194H64.2525V74.8367H61.7006V68.7194H59.5599V66.6992H66.4145Z" fill="white"/>
</svg>
